<svg xmlns="http://www.w3.org/2000/svg" height="800" width="1200" viewBox="-120 -22.00555 1040 132.0333"><path d="M63.4752 2.789v11.1547c0 .7272-.4854 1.2116-1.212 1.2116H14.414V37.949h39.4923c.7266 0 1.2105.4859 1.2105 1.2132V50.317c0 .7273-.4839 1.2116-1.2105 1.2116H14.414v33.7057c0 .7273-.4823 1.2116-1.2105 1.2116H1.2105C.484 86.4459 0 85.9616 0 85.2343V2.789c0-.7272.4839-1.213 1.2105-1.213h61.0527c.7266 0 1.212.4858 1.212 1.213m72.2556 47.7691c-4.4212-12.2449-9.3262-24.4913-14.3557-35.646h-2.845c-5.028 11.1547-9.9944 23.4011-14.4156 35.646zm25.3778 35.8875H147.905c-.7267 0-1.2106-.3644-1.3918-1.0917-1.7574-6.9711-3.8774-14.3051-6.3-21.7022H99.6935c-2.4226 7.397-4.544 14.731-6.24 21.7022-.1812.7273-.6652 1.0917-1.3918 1.0917H79.342c-.848 0-1.3334-.4844-1.0907-1.333C85.8831 58.075 97.512 28.25 109.2623 3.153c.5454-1.1531 1.212-1.576 2.3626-1.576h17.2007c1.1506 0 1.8173.4229 2.3627 1.576 11.8716 25.0356 23.3193 54.922 31.011 81.9595.2427.8488-.2427 1.333-1.0907 1.333zm21.6812-41.7066c0-26.3102 17.322-44.739 42.0347-44.739h1.8158c15.5062 0 27.4992 7.8814 33.8575 19.2775.424.7273.3026 1.3346-.424 1.6975l-10.6596 5.2737c-.7266.3644-1.636.3644-2.12-.5443-4.481-7.7599-11.2049-11.882-21.1378-11.882h-1.8173c-15.5662 0-26.2857 12.3663-26.2857 30.3108 0 18.003 10.5382 30.068 26.2857 30.068h1.8173c10.1757 0 16.1115-3.4564 20.654-8.7301.6052-.6673 1.272-.7872 1.9986-.4244l10.9622 5.3353c.424.2413.6052.5443.6052.8471 0 .3045-.1213.5474-.3625.9103-6.7224 9.8202-18.8367 15.8826-33.6148 15.8826h-1.8173c-25.1367 0-41.792-17.2772-41.792-43.283m174.1914 29.3407v11.1548c0 .7272-.4854 1.2115-1.212 1.2115h-63.5966c-.7266 0-1.212-.4843-1.212-1.2115V2.789c0-.7273.4853-1.2131 1.212-1.2131h62.5059c.728 0 1.212.4858 1.212 1.213V13.944c0 .7272-.4839 1.2115-1.212 1.2115H305.376v22.0651h40.096c.7266 0 1.212.4859 1.212 1.2131V49.467c0 .7273-.4854 1.2131-1.212 1.2131h-40.096v22.1866h50.393c.7267 0 1.212.4843 1.212 1.213m94.7254-12.186c0-7.8798-5.2092-11.4577-16.6568-11.4577h-28.527V73.23h28.527c11.6304 0 16.6568-3.3949 16.6568-11.3362m-20.714-47.1022h-24.4698v22.7939h24.4699c10.9622 0 15.9886-3.5763 15.9886-11.3962 0-7.8214-5.0264-11.3977-15.9886-11.3977m35.492 48.3753c0 14.8525-11.3862 23.2797-31.4949 23.2797H393.319c-.7266 0-1.212-.4859-1.212-1.2116V2.7895c0-.7288.4855-1.213 1.212-1.213h37.976c19.5634 0 30.223 7.7598 30.223 21.945 0 9.336-4.7238 15.4584-14.2926 18.3074 13.4447 2.849 19.2591 10.9119 19.2591 21.3379m70.8013 11.0345c17.3835 0 28.3457-11.9435 28.3457-30.1894 0-18.2474-10.9622-30.1909-28.3457-30.1909h-1.8173c-17.3835 0-28.3457 11.9435-28.3457 30.191 0 18.2458 10.9622 30.1893 28.3457 30.1893zm-45.425-30.1894c0-25.583 16.958-44.0117 43.6077-44.0117h1.8173c26.6498 0 43.6092 18.4288 43.6092 44.0117 0 25.5814-16.9594 44.0103-43.6092 44.0103h-1.8173c-26.6498 0-43.6077-18.4289-43.6077-44.0103zm159.0488 30.1894c17.382 0 28.3442-11.9435 28.3442-30.1894 0-18.2474-10.9622-30.1909-28.3442-30.1909h-1.8188c-17.382 0-28.3442 11.9435-28.3442 30.191 0 18.2458 10.9622 30.1893 28.3442 30.1893zM605.4831 44.012c0-25.583 16.9595-44.0117 43.6077-44.0117h1.8188c26.6498 0 43.6093 18.4288 43.6093 44.0117 0 25.5814-16.9595 44.0103-43.6093 44.0103h-1.8188c-26.6482 0-43.6077-18.4289-43.6077-44.0103zM798.994 86.446h-15.6261c-1.0308 0-1.4533-.2429-2.1216-1.0301-10.9606-12.9122-23.923-25.7644-34.9466-35.2217h-7.025v35.0403c0 .7272-.4839 1.2115-1.212 1.2115h-11.993c-.725 0-1.2106-.4843-1.2106-1.2115V2.789c0-.7273.4853-1.2131 1.2106-1.2131h11.993c.7281 0 1.212.4858 1.212 1.213V36.252h7.1463c11.8118-10.669 22.7141-22.1881 31.6163-33.7657.6054-.7888 1.0907-.9102 1.8173-.9102h14.7781c.7282 0 1.0907.3644 1.0907.8502 0 .2414-.1213.5443-.4238.9087-13.0223 16.0641-25.9216 29.2192-37.8547 39.4038 15.0192 12.7307 29.2535 26.9144 42.2174 42.1913.6637.7888.301 1.516-.6682 1.516" fill="#687b81" fill-rule="evenodd"/></svg>