<svg xmlns="http://www.w3.org/2000/svg" height="800" width="1200" xml:space="preserve" version="1.1" id="Horizontal" viewBox="-147.92265 -53.08775 1281.9963 318.5265"><style id="style1361" type="text/css">.st0{fill:#1c1e20}</style><g id="g1377" fill="#1c1e20" transform="translate(-865.536 -658.033) scale(1.4152)"><path id="path1363" d="M956.2 507.7c-8.8 0-17.4 3.3-23.7 9.6-6.3 6.3-9.5 15-9.5 23.7 0 8.8 3.1 17.4 9.3 23.8 6.2 6.4 14.8 9.7 23.6 9.7s17.4-3.3 23.7-9.6c6.3-6.3 9.5-15 9.5-23.7 0-8.8-3.1-17.4-9.3-23.8-6.3-6.3-14.8-9.7-23.6-9.7zm17.6 37.3c-.2 1.2-.6 2.4-1 3.6-.4 1.1-1 2.2-1.6 3.2-.6 1-1.3 1.9-2.1 2.7-.8.8-1.7 1.5-2.6 2.2-1 .6-2 1.2-3.1 1.6-1.1.5-2.3.8-3.5 1-1.2.2-2.5.3-3.7.3-1.3 0-2.5-.1-3.7-.4-1.2-.2-2.4-.6-3.5-1s-2.1-1-3.1-1.6c-.9-.6-1.8-1.4-2.6-2.2-.8-.8-1.5-1.7-2.1-2.7-.6-1-1.2-2.1-1.6-3.2-.5-1.2-.8-2.4-1-3.6-.2-1.3-.3-2.6-.3-3.9 0-1.3.1-2.6.4-3.9.2-1.2.6-2.4 1-3.6.4-1.1 1-2.2 1.6-3.2.6-1 1.3-1.9 2.1-2.7.8-.8 1.7-1.5 2.6-2.2 1-.6 2-1.2 3.1-1.6 1.1-.5 2.3-.8 3.5-1 1.2-.2 2.5-.3 3.7-.3 1.3 0 2.5.1 3.7.4 1.2.2 2.4.6 3.5 1s2.1 1 3.1 1.6c.9.6 1.8 1.4 2.6 2.2.8.8 1.5 1.7 2.1 2.7.6 1 1.2 2.1 1.6 3.2.5 1.2.8 2.4 1 3.6.2 1.3.3 2.6.3 3.9-.1 1.4-.2 2.6-.4 3.9z" class="st0"/><path id="path1365" d="M832.2 482c-8.7-7-18.8-11.9-29.7-14.5-6.2-1.5-12.5-2.2-18.9-2.4-4.7-.2-9.5-.1-14.2-.1h-67.3c-4.7 0-9.5 0-14.2.1-6.4.2-12.6.9-18.9 2.4-10.9 2.6-20.9 7.5-29.6 14.5-17.6 14.1-27.8 35.4-27.8 58s10.2 43.9 27.8 58c8.7 7 18.8 11.9 29.7 14.5 6.2 1.5 12.5 2.2 18.9 2.4 4.7.2 9.5.1 14.2.1h67.3c4.7 0 9.5 0 14.2-.1 6.4-.2 12.6-.9 18.9-2.4 10.9-2.6 20.9-7.5 29.6-14.5 17.6-14.1 27.8-35.4 27.8-58s-10.2-43.9-27.8-58zm-32.9 78.2c-3.3 2.3-7 3.7-10.9 4.3-3.9.6-7.9.5-11.8.5h-81.5c-4 0-7.9.1-11.8-.5-4-.6-7.6-2-10.9-4.3-6.6-4.6-10.6-12.1-10.6-20.2s4-15.6 10.6-20.2c3.3-2.3 7-3.7 10.9-4.3 3.9-.6 7.9-.5 11.8-.5h81.5c4 0 7.9-.1 11.8.5 4 .6 7.6 2 10.9 4.3 6.6 4.6 10.6 12.1 10.6 20.2.1 8.1-3.9 15.6-10.6 20.2z" class="st0"/><path id="path1367" d="M1225.8 539.2c0 1.8 0 3.6-.1 5.3-.1 1.1-.2 2.3-.4 3.4-.4 2.1-1.1 4.1-2.2 5.9-2.8 4.4-7.8 6.6-12.8 6.7-5.1.1-10-2-12.7-6.6-1.1-1.9-1.8-3.9-2.2-6-.5-2.8-.7-5.8-.7-8.6 0-1.9-.1-3.7-.1-5.6v-24.8h-15.2v25.9c0 2.5 0 5 .1 7.5.1 1.8.1 3.7.3 5.5.4 4.3 1.2 8.5 3.1 12.5 4 8.1 11.8 12.8 20.5 13.8 4.3.5 8.7.1 12.8-1.1 4-1.2 8.2-3.2 11.1-6.3.1 2 .3 4.2.4 6.2h13.3v-64h-15.2z" class="st0"/><path id="path1369" d="M1307.4 547.9c-2.2-6.2-7.6-10-13.3-12.2-3.2-1.3-6.5-2-9.8-2.8-1.5-.3-2.9-.6-4.4-1-1.2-.3-2.5-.7-3.7-1.2-1.3-.6-2.6-1.3-3.5-2.4-.8-.9-1.2-2.1-1-3.3.2-1.4 1-2.6 2.1-3.5.8-.6 1.6-1.1 2.5-1.4 1.2-.5 2.4-.7 3.6-.9 2.5-.3 5-.1 7.4.4 3.7.8 7.1 2.2 10.3 4.2 2.5-3.5 5.1-6.9 7.6-10.4-5.1-3.7-10.8-6-17-7-3.5-.5-7-.6-10.4-.1-2.7.4-5.3 1-7.8 2.1-3.3 1.4-6.3 3.4-8.6 6.3-1.7 2-2.9 4.4-3.6 6.9-.9 3.1-.9 6.4.1 9.6.9 2.9 2.6 5.3 4.8 7.3 4.7 4.1 11.4 5.6 17.1 6.8 2 .4 4 .8 6 1.4 1.6.5 3.3 1 4.7 1.9 1.1.7 2.2 1.6 2.9 2.7.6 1 .9 2.1.8 3.2-.1 1.1-.5 2-1.2 2.9-.8 1-1.8 1.7-2.9 2.3-1.5.7-3.1 1.1-4.7 1.3-2.2.3-4.6.2-6.8-.1-2.5-.3-4.8-.9-7.2-1.7-3.6-1.3-6.7-3.2-9.7-5.5l-8.1 10.8c4.8 4 10.3 6.9 16.3 8.7 3.3.9 6.7 1.5 10.2 1.6 2.8.1 5.5-.1 8.3-.5 3.5-.6 7-1.7 10.1-3.6 2.3-1.4 4.2-3.1 5.9-5.2 2.1-2.7 3.4-5.9 3.9-9.3.3-2.8.1-5.6-.9-8.3z" class="st0"/><path id="path1371" d="M1038.3 559c-3.5.8-7.3.7-10.8-.4-3.5-1.1-6.5-3.3-8.7-6.3-2.1-3-3.2-6.6-3.4-10.2-.2-3.6.5-7.4 2.2-10.6 1.8-3.4 4.4-5.7 7.9-7.2 1.5-.6 3-1.1 4.6-1.3 2.1-.3 4-.4 6.1-.1 3.7.4 7.1 1.8 10.2 3.8 3.1-3.9 6.1-7.8 9.2-11.6-5.3-4.2-11.3-6.6-17.9-7.3-6.5-.7-13.2.3-19.2 3.1-6 2.9-10.8 7.4-14 13.3-3.1 5.8-4.4 12.5-4.1 19 .3 6.5 2.3 13 6.1 18.4 3.8 5.5 9.2 9.4 15.5 11.5 6.2 2.1 13 2.5 19.4 1.1 6.4-1.4 12.4-4.5 17-9.3-3.5-3.6-6.9-7.2-10.4-10.8-2.9 2.4-6.2 4.1-9.7 4.9z" class="st0"/><path id="rect1373" class="st0" d="M1147 475h16v98h-16z"/><path id="path1375" d="M1114.2 539.2c0 1.8 0 3.6-.1 5.3-.1 1.1-.2 2.3-.4 3.4-.4 2.1-1.1 4.1-2.2 5.9-2.8 4.4-7.8 6.6-12.8 6.7-5.1.1-10-2-12.7-6.6-1.1-1.9-1.8-3.9-2.2-6-.5-2.8-.7-5.8-.7-8.6 0-1.9-.1-3.7-.1-5.6v-24.8h-15.2v25.9c0 2.5 0 5 .1 7.5.1 1.8.1 3.7.3 5.5.4 4.3 1.2 8.5 3.1 12.5 4 8.1 11.8 12.8 20.5 13.8 4.3.5 8.7.1 12.8-1.1 4-1.2 8.2-3.2 11.1-6.3.1 2 .3 4.2.4 6.2h12.9v-64h-14.8z" class="st0"/></g></svg>